<?xml version="1.0" encoding="UTF-8"?>
<svg xmlns="http://www.w3.org/2000/svg" viewBox="0 0 64.17 68.63" role="img" aria-label="Jas">
  <title>Jas</title>
  <defs>
    <style>
      .st0 {
        fill: #C9900A;
      }
    </style>
  </defs>
  <path class="st0" d="M35.8,18.5c2.31-1.14,3.25-3.94,2.11-6.25-1.14-2.31-3.94-3.25-6.25-2.11s-3.25,3.94-2.11,6.25,3.94,3.25,6.25,2.11ZM32.58,12.03c1.27-.63,2.81-.11,3.44,1.16s.11,2.81-1.16,3.44-2.81.11-3.44-1.16-.11-2.81,1.16-3.44Z"/>
  <path class="st0" d="M25.62,22.78c2.45-.8,3.79-3.43,2.99-5.88s-3.43-3.79-5.88-2.99-3.79,3.43-2.99,5.88,3.43,3.79,5.88,2.99ZM21.67,18.76c-.19-1.05.39-2.42,1.55-2.84,1.61-.59,3.18.42,3.5,1.97.31,1.48-.85,3.03-2.6,3.06-1.29.02-2.24-.99-2.46-2.18Z"/>
  <path class="st0" d="M14.82,25.41c2.53-.47,4.2-2.91,3.72-5.44s-2.91-4.2-5.44-3.72-4.2,2.91-3.72,5.44,2.91,4.2,5.44,3.72ZM13.04,18.43c1.46-.56,2.8.23,3.3,1.48.54,1.34-.17,2.82-1.44,3.3-1.33.51-2.75-.07-3.29-1.32-.56-1.29-.03-2.91,1.43-3.46Z"/>
  <path class="st0" d="M53.98,7.5c-.35-1.11-1.33-1.69-2.33-1.66-1.08.03-1.89.69-2.23,1.79-.83,2.72-2,5.26-3.7,7.56-1.62,2.18-3.51,4.02-5.59,5.6-.67-.85-1.58-1.32-2.6-1.2-1.36.15-2.67,1.23-2.66,2.7,0,.53.15,1.06.31,1.61-1.7.89-3.48,1.65-5.3,2.33-.4-.88-.95-1.61-1.85-1.98-1.19-.48-2.47,0-3.29.95-.65.74-.78,1.76-.53,2.81-.43.11-.85.23-1.28.33-1.44.36-2.88.68-4.32.98-.25-.75-.59-1.43-1.22-1.91-1.08-.83-2.59-.68-3.62.15-.77.62-1.11,1.62-1.01,2.8-2,.31-4.01.58-6.04.79v6.75c.49.05.97.1,1.46.16.15.02.29.05.43.08,5.64.77,11.34,1.93,13.63,2.47,1.26.33,2.55.67,3.89,1.02,0,0,0,.01,0,.02,10.35,2.48,19.83,7.59,23.16,18.49.35,1.15,1.07,1.95,2.2,2,1.04.05,2.2-.45,2.54-1.66,2.07-7.3,3.32-14.75,3.6-22.37l.06-1.68c.33-8.94-.98-20.4-3.7-28.93ZM52.87,38.68c-.23,4.09-.84,9.27-1.67,13.29l-.27.31c-6.34-10.42-16.99-14.04-28.31-16.23-2.21-.45-4.53-.94-7.03-1.41l2.14-.38c9.88-1.76,20.41-4.96,27.94-11.87,2.23-2.04,3.89-4.34,5.51-6.95,1.47,8.15,2.15,15.24,1.69,23.23Z"/>
</svg>