<?xml version="1.0" encoding="UTF-8"?>
<svg id="Layer_1" xmlns="http://www.w3.org/2000/svg" version="1.1" viewBox="42 158 164 74" role="img" aria-label="Jas">
  <title>Jas</title>
  <defs>
    <style>
      .st0 {
        fill: currentColor;
      }
    </style>
  </defs>
  <path class="st0" d="M76.35,194.62c-2.99,1.02-5.55,2.92-6.89,5.64-2.83,5.73-.27,12.21,5.59,14.58,2.34.95,4.78,1.31,7.43,1.41-.77-2.83.02-5.48,2.07-7.4,1.18-1.11,2.89-1.76,4.59-1.77l9.45-.04.02-10.86h5.89s0,27.65,0,27.65c0,1.24-.1,2.44-1.14,3.13s-2.25.69-3.28.12c-.96-.53-1.47-1.66-1.47-2.87v-12.21s-9.26.02-9.26.02c-1.25,0-2.12,1.04-2.15,2.09-.03,1.2.82,2.21,2.14,2.21h6.36s.02,4.96.02,4.96l-13.79-.05c-3.71-.01-7.25-.82-10.49-2.54-4.64-2.46-7.58-7.04-8.1-11.97-.57-5.46,1.67-10.56,5.92-13.88s9.7-4.52,14.81-4.52h14.55c-.03-1.51.51-2.7,1.54-3.26,1.17-.63,2.68-.49,3.59.52.67.75.84,1.7.92,2.73h7.1c-.06-1.34.39-2.54,1.39-3.14,1.07-.64,2.44-.71,3.42.12.89.75,1.16,1.83,1.2,3.03h7.11c.14-.78.23-1.54.54-2.19.65-1.33,2.3-1.7,3.58-1.24s1.95,1.79,1.89,3.42l13.87-.57,4.78-.42c6.32-.55,12.45-1.53,18.61-3.06,8.71-2.17,17.31-5.76,22.79-13.15,1.71-2.3,2.88-4.84,3.7-7.56.33-1.1,1.14-1.76,2.23-1.79,1-.03,1.98.55,2.33,1.66,2.72,8.53,4.03,19.99,3.7,28.93l-.06,1.68c-.28,7.62-1.53,15.07-3.6,22.37-.34,1.2-1.49,1.71-2.54,1.66-1.13-.06-1.85-.86-2.2-2-3.33-10.9-12.8-16.02-23.15-18.5-1-2.12-2.12-3.75-3.75-5.39-.14.08.17-.14.25-.19,11.32,2.19,21.97,5.81,28.31,16.23l.27-.31c.83-4.03,1.43-9.2,1.67-13.29.45-7.98-.22-15.07-1.69-23.23-1.62,2.61-3.29,4.91-5.51,6.95-7.53,6.91-18.06,10.11-27.94,11.87l-2.76.49c2.94,1.29,5.52,3.12,7.32,5.91,3.43,5.31,3.39,12.3-.32,17.45s-10.31,7.16-16.1,7.17l-17.24.05v-4.97s15.27,0,15.27,0c3.32,0,7.07-.47,10-1.94,3.96-1.99,6.22-5.93,5.78-10.36-.37-3.75-2.62-6.87-6.08-8.41-1.71-.76-3.53-1.36-5.43-1.61-3.49-.46-6.86-.7-10.46-.7h-59.57c-2.47.01-4.72.55-7.01,1.34Z"/>
  <path class="st0" d="M148.32,213.31c-.56-.66-1.17-1.29-2.1-1.28l-15.34.07-.11,12.97c-.01,1.6-1.62,2.44-3,2.41s-2.82-1.14-2.82-2.78v-28.54s5.88-.01,5.88-.01l.02,10.92,15.18-.02c3.72,0,6.81,2.49,7.28,6.25h-5Z"/>
  <path class="st0" d="M120.4,216.06c.61,1.91-1.09,2.91-2.66,3.52v4.63c-.02,1.16-.41,2.42-1.47,2.93-1,.48-2.02.5-3-.02-.7-.37-1.46-1.32-1.46-2.37l-.03-5.4c-3.86-1.87-5.78-6.27-4.12-10.22.81-1.93,2.12-3.38,4.11-4.2l.03-8.77h5.92s.02,8.5.02,8.5c.88.37,1.75.71,2.24,1.42.71,1.03.31,2.27-.4,2.99-.93.92-2.09.88-3.24.35-1.27-.59-2.74-.24-3.58.81s-.92,2.6.01,3.67c.84.97,2.31,1.47,3.63.77,1.49-.78,3.42-.38,3.99,1.39Z"/>
  <path class="st0" d="M49.77,195.12c-1.51.8-2.37,2.55-4.18,1.67-.7-.34-1.26-1.09-1.25-2.04l.02-7.98c0-1.04.8-1.7,1.51-1.96,1-.37,1.74.14,2.49.76,2.19,1.81,5,2.41,7.88,2.8v4.88c-2.3.3-4.39.77-6.46,1.86Z"/>
  <path class="st0" d="M132.61,178.49c0,2.58-2.09,4.67-4.67,4.67s-4.67-2.09-4.67-4.67,2.09-4.67,4.67-4.67,4.67,2.09,4.67,4.67ZM130.5,178.49c0-1.42-1.15-2.56-2.56-2.56s-2.56,1.15-2.56,2.56,1.15,2.56,2.56,2.56,2.56-1.15,2.56-2.56Z"/>
  <path class="st0" d="M119.4,178.49c0,2.58-2.09,4.66-4.66,4.66s-4.66-2.09-4.66-4.66,2.09-4.66,4.66-4.66,4.66,2.09,4.66,4.66ZM113.89,180.94c1.67.51,3.25-.6,3.42-2.1s-1.01-3.02-2.72-2.95c-1.23.05-2.21,1.17-2.35,2.23-.16,1.2.42,2.45,1.66,2.83Z"/>
  <path class="st0" d="M106.26,178.49c0,2.57-2.09,4.66-4.66,4.66s-4.66-2.09-4.66-4.66,2.09-4.66,4.66-4.66,4.66,2.09,4.66,4.66ZM101.14,175.96c-1.54.28-2.36,1.77-2.05,3.14s1.6,2.15,2.99,1.9,2.3-1.56,2.03-2.98c-.26-1.32-1.43-2.34-2.97-2.06Z"/>
  <path class="st0" d="M70.85,188.47c-2.41,1.4-4.35,2.86-6.16,4.7h-5.56s-.01-4.71-.01-4.71l8.03.04,3.7-.03Z"/>
</svg>
