<?xml version="1.0" encoding="UTF-8"?>
<svg id="Layer_1" xmlns="http://www.w3.org/2000/svg" version="1.1" viewBox="0 0 256 256">
  <!-- Generator: Adobe Illustrator 30.2.1, SVG Export Plug-In . SVG Version: 2.1.1 Build 1)  -->
  <defs>
    <style>
      .st0 {
        fill: #fff;
      }
    </style>
  </defs>
  <path d="M170.82,209.27l-88.08,46.73-10.99-25.31C60.04,197.72,31.98,175.62.51,162.2L.07,55.68,0,7.02C0,5.03.62,2.32,1.66,1.26S6.93-.46,8.2.39l130.44,88.12c-4.9,32.54-4.3,66.45,14.46,94.39l17.7,26.39h.01ZM126.44,94.04L22.84,24.64l41.69,78.4c8.43-.86,14.26,3.51,17.15,10.34,2.89,6.83,1.54,14.35-5.04,18.88-7.75,5.36-16.95,4.92-23.05-1.74-5.62-6.13-5.52-14.47-.31-22.49L11.47,30.27l.6,125c25.9,11.13,45.75,28.26,60.13,51.08l62.86-33.45c-7.3-15.42-10.59-30.14-11.11-46.23-.41-10.7.26-20.88,2.47-32.64v.02Z"/>
  <path d="M232.87,153.61c-3.47,3.11-8.74,5.8-13.86,7.8l-18.34-34.03-33.68,18.09-7.64-13.38,34.16-18.2-18.46-35.15,13.59-7.64,18.83,35.42,33.38-17.99,7.32,13.45-33.3,18.14,17.99,33.46v.03Z"/>
  <path class="st0" d="M126.44,94.04c-2.22,11.75-2.88,21.93-2.47,32.64.52,16.1,3.8,30.8,11.11,46.23l-62.86,33.45c-14.38-22.81-34.23-39.94-60.13-51.08l-.62-125.03,41.81,77.76c-5.22,8.02-5.31,16.36.31,22.49,6.1,6.66,15.3,7.1,23.05,1.74,6.57-4.54,7.84-12.25,5.04-18.88s-8.7-11.19-17.14-10.35L22.85,24.63l103.56,69.4h.02Z"/>
</svg>