<?xml version="1.0" encoding="UTF-8"?>
<svg id="Layer_1" xmlns="http://www.w3.org/2000/svg" version="1.1" viewBox="0 0 256 256">
  <!-- Generator: Adobe Illustrator 30.2.1, SVG Export Plug-In . SVG Version: 2.1.1 Build 1)  -->
  <defs>
    <style>
      .st0 {
        fill: #fff;
      }
    </style>
  </defs>
  <path d="M83.11,256l-17.21-39.82c-14.6-25.62-37.76-42.26-64.64-54.74l-.55-51.33L0,6.71C-.02,4.87,1.44,1.8,2.62.77s5.12-1.03,6.66.01l128.83,87.39-2.52,25.97c-2.03,20.93,1.76,44.01,13.52,61.83l21.9,33.2s-87.9,46.83-87.9,46.83ZM125.27,93.8L23.13,24.57l39.47,73.45c1.29,2.43,4.09,4.31,6.62,5.06,10.87,1.39,15.9,13.21,12.45,22.55-3.45,9.33-16.08,13.17-24.38,7.8-8.31-5.38-10.28-16.62-3.7-25.38L12.6,30.88l.27,123.04c23.7,11.46,47.42,29.86,60.53,52.12l60.89-32.47c-10.97-26.18-11.95-50.76-9.02-79.77Z"/>
  <path d="M179.5,120.04l32.26,60.93-12.56,6.65-39.41-73.7,73.14-38.92c2.57,3.76,4.72,7.63,7.25,12.71l-60.67,32.35h0Z"/>
  <path class="st0" d="M125.27,93.8c-2.91,29.02-1.94,53.59,9.02,79.77l-60.89,32.47c-13.11-22.26-36.84-40.65-60.53-52.12l-.29-123.03,40.98,77.16c-6.57,8.75-4.87,19.83,3.7,25.38,8.57,5.55,20.86,1.73,24.38-7.8,3.52-9.52-1.58-21.16-12.45-22.55-2.52-.74-5.31-2.64-6.62-5.06L23.11,24.58s102.16,69.22,102.16,69.22Z"/>
</svg>