<?xml version="1.0" encoding="UTF-8"?>
<svg id="Layer_1" xmlns="http://www.w3.org/2000/svg" version="1.1" viewBox="0 0 256 256">
  <!-- Generator: Adobe Illustrator 30.2.1, SVG Export Plug-In . SVG Version: 2.1.1 Build 1)  -->
  <defs>
    <style>
      .st0 {
        fill: #fff;
      }
    </style>
  </defs>
  <rect x="158.95" y="110.41" width="93.43" height="15.36" transform="translate(-31.37 110.38) rotate(-28)"/>
  <path d="M171.16,209.05l-87.84,46.95c-3.95-8.26-7.66-16.33-10.98-24.89-13.5-34.82-37.51-53.77-71.54-69.91l-.4-54.61L0,6.21C0,3.95,2.53.66,4.05.16s4.42.21,6.33,1.51l127.62,86.16c-.17,5.51-.81,10.43-1.56,16.17-3.3,25.08,1.31,50.95,12.81,73.57l21.9,31.48h.01ZM126.23,94.28L23.74,25.13l40.64,76.23c8.43.72,15.03,4.43,17.57,11.7,2.15,6.12,1.75,13.7-4.2,18.37-7.75,6.08-17.58,6.02-24.09-1.18-5.35-5.91-5.51-14.83-.29-22.63L12.36,30.8l.37,123.25c25.61,11.42,45.47,29.48,60.57,52.09l61.27-32.7c-7.44-16.01-10.1-31.9-10.5-48.72-.1-10.2.57-19.58,2.17-30.44h-.01Z"/>
  <path class="st0" d="M126.23,94.28c-1.59,10.88-2.27,20.24-2.17,30.44.4,16.82,3.06,32.72,10.5,48.72l-61.27,32.7c-15.09-22.6-34.96-40.67-60.57-52.09l-.37-123.25,41.01,76.81c-5.22,7.79-5.06,16.71.29,22.63,6.52,7.2,16.36,7.25,24.09,1.18,5.95-4.67,6.35-12.24,4.2-18.37-2.55-7.28-9.14-10.98-17.57-11.7L23.73,25.13s102.5,69.14,102.5,69.14Z"/>
</svg>