<?xml version="1.0" encoding="UTF-8"?><svg id="Layer_1" xmlns="http://www.w3.org/2000/svg" viewBox="0 0 256 256"><defs><style>.cls-1{fill:#fdfdfc;}.cls-2{fill:#10100f;}.cls-3{fill:#5f5f5b;}</style></defs><path class="cls-2" d="M169.86,33.13L243.34,1.82c3.43-1.46,6.39-2.97,9.92-.52,2.21,1.54,3.34,4.88,2.41,8.76l-19.31,80.53-108.02,125.71-27.98,31.2c-9.63,10.74-24.91,11.34-35.56,1.63l-28-25.52c-9.09-8.28-9.54-23.48-1.42-32.95l40.64-47.45,93.83-110.08ZM44.69,212.9c5.4,7.73,12.55,13.15,19.52,19.31,5.56,4.92,18,17.55,26.77,7.31l15.82-18.47-45.05-40.93c-8.37,10.46-24.79,21.69-17.05,32.78ZM114.32,212.86l9.68-10.9-46.26-41.04-9.68,10.9,46.26,41.04ZM207.17,85.96l-84.25,98.98c2.18,3.84,4.72,6.53,8.62,7.89l23.35-27,65.13-76.29c-4.31-2.82-8.04-3.81-12.85-3.59ZM184.63,65.93l-84.27,98.59c4.03,6.69,8.92,12.04,15.89,15.76l84.89-99c2.43-2.83-.1-11.35-3.01-13.03-3.54-2.05-8.62-1.86-13.5-2.32ZM124.64,106.13l-7.69,9.56c-9.84,12.23-20.35,23.53-30.54,35.78-2.1,2.53,1.56,5.43,3.15,6.5,1.37.93,4.39,2.19,6.38-.14l62.56-73.21c7.01-8.2,14.63-15.35,19.83-24.82,1.68-3.05-.52-8.15-3.33-12.12l-50.36,58.45ZM183.88,41.54c1.06,5.57.64,13.64,5.17,14.68l16.7,3.81,4.99,15c1.35,4.07,11.55,5.26,14.92,2.22,1.66-.42,9.88-35.54,6.97-35.87-18.53-14.45-11.58-15.08-24.42-10.2-8.02,3.05-16.26,5.69-24.34,10.36Z"/><path class="cls-3" d="M184.63,65.93c4.88.46,9.96.27,13.5,2.32,2.91,1.68,5.44,10.2,3.01,13.03l-84.89,99c-6.97-3.72-11.86-9.07-15.89-15.76l84.27-98.59Z"/><path class="cls-3" d="M44.69,212.9c-7.74-11.08,8.68-22.32,17.05-32.78l45.05,40.93-15.82,18.47c-8.77,10.24-21.21-2.39-26.77-7.31-6.96-6.17-14.12-11.58-19.52-19.31Z"/><path class="cls-3" d="M207.17,85.96c4.81-.22,8.54.77,12.85,3.59l-65.13,76.29-23.35,27c-3.91-1.36-6.44-4.06-8.62-7.89l84.25-98.98Z"/><path class="cls-3" d="M124.64,106.13l50.36-58.45c2.8,3.96,5.01,9.06,3.33,12.12-5.2,9.48-12.82,16.62-19.83,24.82l-62.56,73.21c-1.99,2.33-5.01,1.06-6.38.14-1.59-1.07-5.25-3.97-3.15-6.5,10.19-12.26,20.7-23.56,30.54-35.78l7.69-9.56Z"/><path class="cls-1" d="M183.88,41.54c8.08-4.67,16.32-7.31,24.34-10.36,12.84-4.88,5.89-4.25,24.42,10.2,2.91.33-5.31,35.45-6.97,35.87-3.37,3.03-13.57,1.84-14.92-2.22l-4.99-15-16.7-3.81c-4.53-1.03-4.11-9.11-5.17-14.68Z"/><rect class="cls-1" x="88.74" y="155.97" width="14.58" height="61.84" transform="translate(299.56 239.09) rotate(131.58)"/></svg>