<?xml version="1.0" encoding="UTF-8"?>
<svg id="Layer_1" xmlns="http://www.w3.org/2000/svg" version="1.1" viewBox="0 0 256 256">
  <!-- Generator: Adobe Illustrator 30.2.1, SVG Export Plug-In . SVG Version: 2.1.1 Build 1)  -->
  <defs>
    <style>
      .st0 {
        fill: #fff;
      }
    </style>
  </defs>
  <path d="M163.07,190.51l12.54,19.52-90.68,45.96-12.46-28.05C58.86,195.29,32.68,176.45.13,161.51L0,4.58C0,2.38,2.8-.28,4.11-.37s3.96.45,5.31,1.34l85.42,56.33,48.38,32.15c-7.29,34.58-4.05,71.59,19.86,101.06ZM61.7,49.58L23.48,24.2l42.08,78.11c7.48.17,14.18,2.89,17.49,8.79s3.87,13.16-.95,18.87c-6.36,7.54-17.67,8.57-24.72,3.04-7.83-6.14-9.41-16.13-2.86-24.95L12.09,30.4l.44,69.96-.29,54.31c25.62,11.65,46.88,28.2,61.53,51.84l64.8-33.24c-11.11-25.08-13.69-50.63-8.47-78.19L61.7,49.58Z"/>
  <path class="st0" d="M61.7,49.58l68.41,45.5c-5.22,27.56-2.64,53.1,8.47,78.19l-64.8,33.24c-14.66-23.64-35.91-40.19-61.53-51.84l.29-54.31-.44-69.96,42.43,77.66c-6.55,8.82-4.96,18.8,2.86,24.95,7.05,5.53,18.35,4.49,24.72-3.04,4.82-5.71,4.27-12.96.95-18.87s-10.01-8.62-17.49-8.79L23.48,24.2l38.22,25.38Z"/>
</svg>