<?xml version="1.0" encoding="UTF-8"?><svg id="Layer_1" xmlns="http://www.w3.org/2000/svg" viewBox="0 0 256 256"><defs><style>.cls-1{fill:#fdfdfc;}.cls-2{fill:#10100f;}.cls-3{fill:#5f5f5b;}</style></defs><path class="cls-2" d="M57.6,233.77l-51.77,22c-3.79,1.61-6.42-5.57-5.71-8.78l15.63-71.11c1.24-5.63,2.19-9.52,6.08-14.09L108.97,59.4l43.76-50.24c6.91-7.93,20.11-12.57,29.23-6.1,13.11,9.3,24.18,19.89,35.98,30.87,7.38,6.86,8.71,20.57,2.31,28.2l-28.29,33.69-107.57,127.08c-9.12,4.32-17.67,7-26.79,10.88ZM208.57,55.33c4.05-7.4-1.19-14.82-6.49-19.18l-25-20.58c-10.66-8.78-22.36,11.05-28.07,18.32,14.44,13.9,28.28,26.73,44.4,38.75,5.64-5.65,11.45-10.55,15.16-17.31ZM47.55,169.12l54.59-64.54,45.3-52.97c-1.65-3.38-5.02-6.99-8.64-7.09l-29.83,34.98-32.56,37.99-41.55,49.37c2.96,2.59,8.83,3.72,12.69,2.27ZM70.01,189.48l100.12-119.07c-4.99-5.52-9.71-9.68-15.66-14.57l-101.24,118.96c-1.09,3.85,0,11.7,2.84,13.56,3.59,2.36,8.79,1.47,13.94,1.12ZM161.36,111.12l22.92-27.94c.27-2.88-4.81-6.1-8.25-6.56l-97.51,115.25c-4.08,4.82-2.08,11.6,1.03,14.97,5.39-5.13,9.2-9.78,13.72-15.13l68.09-80.6ZM71.47,214.03c-1.86-5.4-2.34-12.15-6.75-14.6s-10.94.43-14.92-3.17c-3.94-3.57-3.93-11.43-7.13-15.82-2.12-2.9-12.04-3.93-13.67-.71l-4.39,18.04c-1.33,5.49-1.69,11.04-2.68,16.6l17.23,13.26c11.17-5.53,21-9.08,32.31-13.6Z"/><path class="cls-3" d="M70.01,189.48c-5.14.35-10.35,1.24-13.94-1.12-2.83-1.86-3.93-9.72-2.84-13.56l101.24-118.96c5.95,4.89,10.67,9.06,15.66,14.57l-100.12,119.07Z"/><path class="cls-3" d="M208.57,55.33c-3.71,6.76-9.52,11.66-15.16,17.31-16.12-12.02-29.96-24.85-44.4-38.75,5.71-7.27,17.41-27.1,28.07-18.32l25,20.58c5.3,4.36,10.55,11.78,6.49,19.18Z"/><path class="cls-3" d="M47.55,169.12c-3.85,1.45-9.72.32-12.69-2.27l41.55-49.37,32.56-37.99,29.83-34.98c3.62.1,6.99,3.72,8.64,7.09l-45.3,52.97-54.59,64.54Z"/><path class="cls-3" d="M161.36,111.12l-68.09,80.6c-4.52,5.34-8.33,9.99-13.72,15.13-3.1-3.37-5.1-10.15-1.03-14.97l97.51-115.25c3.44.45,8.52,3.68,8.25,6.56l-22.92,27.94Z"/><path class="cls-1" d="M71.47,214.03c-11.31,4.52-21.14,8.07-32.31,13.6l-17.23-13.26c.99-5.56,1.35-11.11,2.68-16.6l4.39-18.04c1.63-3.22,11.55-2.19,13.67.71,3.2,4.4,3.19,12.25,7.13,15.82,3.97,3.6,10.62.78,14.92,3.17s4.89,9.2,6.75,14.6Z"/></svg>