<?xml version="1.0" encoding="UTF-8"?><svg id="Layer_1" xmlns="http://www.w3.org/2000/svg" viewBox="0 0 1084 415.36"><defs><style>.cls-1{fill:#fdfdfc;}.cls-2{fill:#10100f;}.cls-3{fill:#5f5f5b;}</style></defs><path class="cls-3" d="M817.86,278.85c-4.07-.62-8.29,1.59-11.71-.28-1.67-1.57-1.68-7.98-.32-10,3.25-2.62,8.71-.15,12.26.16.15,3.96.54,6.44-.23,10.11Z"/><path class="cls-3" d="M654.88,277.94c-3.43,2.62-7.88-.12-11.45.78-.54-2.86-2.09-7.67.29-9.76,2.68-2.35,9.04-2.36,11.51.2,1.48,1.54,1.35,7.48-.35,8.78Z"/><path class="cls-3" d="M628.53,278.6c-4.4.5-8.38.6-12.68.24-.8-3.78-.82-7.02-.52-10.98,4.66.38,8.73-.27,13.03.62.33,3.26.26,5.94.17,10.12Z"/><path class="cls-3" d="M709.54,278.39c-4.22,1.19-8.24,1.03-12.4.23-.56-3.3-.27-5.96-.31-9.6,3.99-1.52,8.41-2.22,12.65-.38.75,3.05.64,5.83.05,9.75Z"/><path class="cls-3" d="M872.75,278.35c-4.18.99-7.97.59-12.2.08-.74-3.39-.77-6.5-.17-9.98,4.09-1.52,8.26-1.44,12.2.39.72,2.98.67,5.66.17,9.5Z"/><path class="cls-3" d="M899.2,278.51c-3.08,1.18-8.33.43-12.19-.26-.89-3.39-.54-6.32-.38-9.73,4.4-.54,8.3-.81,12.71-.16.42,2.97,1.11,6.81-.14,10.14Z"/><path class="cls-3" d="M737.11,278.59c-4.37.61-8.35.81-12.56.16-.52-3.71-.4-6.72-.04-10.08,4.26-.68,8.31-1.69,12.39-.14.58,3.23.48,6.02.22,10.05Z"/><path class="cls-3" d="M791.1,277.95c-3.82,1.19-9.02,2.19-12.38.09-1.26-1.85-1.2-7.11-.06-9.09,3.26-2.32,8.19-.74,12.06-.51.9,3,.82,5.35.37,9.52Z"/><path class="cls-3" d="M844.33,278.93l-11.33-.23c-.46-3.66-.38-6.73-.07-10.25,3.85-.9,7.62-1.09,11.66-.04,1.46,3.44,1.1,6.93-.26,10.52Z"/><path class="cls-3" d="M763.82,278.75c-4.31.42-7.95.46-11.88-.17-.82-3.45-.7-6.72-.25-10.28,4.12-.59,7.73-.15,12.15-.03.67,3.34.9,6.3-.02,10.48Z"/><path class="cls-3" d="M926.78,278.61c-4.09.64-7.73.41-11.82.02-1.23-3.1-1.11-6.1-.57-9.84,3.99-1.3,8.11-1.41,12.28-.43.8,3.35.8,6.31.11,10.25Z"/><path class="cls-3" d="M1008.97,414.64c-3.54,1.1-6.95.75-10.59.14-.89-4.11-.86-7.81,0-11.86,3.6-.65,6.88-.77,10.38.22.46,3.74.33,6.95.21,11.51Z"/><path class="cls-3" d="M682.39,278.48c-4.04,1.07-7.66.85-11.58.12-1.06-3.42-1.15-6.76-.17-10.4,3.97-.86,7.71-.55,11.68.22.85,3.25.87,6.23.07,10.06Z"/><path class="cls-3" d="M1008.75,360.66c-3.55,1.33-6.93,1.1-10.65.69-.63-4.31-.5-8.03-.04-12.06,3.9-.17,7.03-.33,10.64.29.38,3.64.35,6.72.05,11.08Z"/><path class="cls-3" d="M1008.46,387.1c-1.33,2.83-7.19,1.28-9.93,1.29-1.33-4.03-.88-7.67-.2-11.84,3.4-.77,6.23-.62,9.96.09-.2,3.03,1.88,6.84.17,10.47Z"/><path class="cls-2" d="M762.2,175.94c11.48,9.34,49.63,12.78,45.49,46.07-1.19,9.56-7.61,19.79-18.27,24.04-14.69,5.85-30.81,4.47-45.37-1.23.47-4.68,1.55-7.93,3.11-11.67,9.5,3.79,19.58,5.53,29.64,3.42,8.68-1.82,13.82-8.17,14.43-16.16.65-8.55-3.33-15.19-11.76-19.01l-21.46-9.72c-11.6-5.25-18.43-15.52-18.34-27.89.08-11.69,6.68-22.34,18.54-27.37,14.4-6.11,31.49-4.4,45.49,2.87-.51,4.89-3.12,8.2-4.55,12.47-13.33-8.75-41.32-8.29-43.12,7.75-.73,6.5.91,12.14,6.17,16.42Z"/><path class="cls-2" d="M735.23,206.16c1.36-3.22,8.17-1.51,11.39-.84,2.35,18.66-5.1,40.07-25.23,43.67-12.58,2.25-25.25-.94-32.47-11.28-6.04-8.66-10.11-20.45-8.36-31.26.55-3.39,10.52-3.41,12.41-.91,2.42,5.85,1.22,13.66,4.25,19.58,3.34,6.52,9.26,10.96,16.14,11.19,7.35.25,13.54-4.25,17.24-10.96,3.2-5.82,2.05-12.38,4.64-19.2Z"/><path class="cls-2" d="M622.89,227.68l-66.38,27.41c-3.64,1.5-5.43-6.66-4.68-9.88l17.55-75.22c7.36-9.61,14.58-17.27,22.29-26.35l91.35-107.59,13.18-14.76c10.19-11.42,24.53-9.65,35.35-.05l25.45,22.59c9.72,8.62,8.08,22.16-.02,31.72l-30.35,35.82-88.63,105.34c-4.48,5.32-8.1,8.07-15.12,10.97ZM746.82,68.3c5.09-6.18,3.7-14.73-2.2-19.76l-23.3-19.83c-11.92-10.14-21.75,7.04-28.28,16.01l41.17,37.77c4.63-4.59,8.27-8.95,12.6-14.2ZM584.69,171.62c4.6,1.59,8.71,3.23,12.12,1.54l94.82-111.41c-1.66-3.52-4.67-5.82-7.96-6.88l-44.96,52.22-48.58,56.78c-2.23,2.6-3.09,5.63-5.44,7.75ZM618.39,191.49l45.61-54.27,48.81-57.26c-4.73-5.39-9.52-9.71-15.29-13.81l-95.93,113.23c.15,4.95,1.03,7.93,2.63,12.87,3.09-.03,10.91,3.11,14.17-.76ZM626.85,208.97c3.61-3.47,5.83-5.71,8.61-8.99l68.4-80.98c7.9-9.36,15.99-17.18,22.27-28.37-1.92-2.42-4.6-3.1-7.52-5.41l-21.07,24.77c-3.88,4.56-7.34,8.39-11.21,12.99l-62.67,74.53c-1.34,3.64,1.3,7.95,3.2,11.46ZM613.28,200.71c-6.14-.31-10.88.13-15.64-1.26-3.44-4.57-2.48-11.36-6.13-15.66-2.75-3.23-9.16-2.25-13.02-2.69l-6.37,34.74,15.61,12.98,31.21-13.46c-1-5.46-2.69-10.25-5.65-14.66Z"/><path class="cls-3" d="M618.39,191.49c-3.26,3.88-11.08.74-14.17.76-1.6-4.95-2.48-7.92-2.63-12.87l95.93-113.23c5.76,4.1,10.56,8.41,15.29,13.81l-48.81,57.26-45.61,54.27Z"/><path class="cls-3" d="M746.82,68.3c-4.33,5.25-7.97,9.61-12.6,14.2l-41.17-37.77c6.53-8.97,16.36-26.16,28.28-16.01l23.3,19.83c5.9,5.02,7.29,13.58,2.2,19.76Z"/><path class="cls-3" d="M584.69,171.62c2.34-2.12,3.21-5.15,5.44-7.75l48.58-56.78,44.96-52.22c3.29,1.06,6.3,3.36,7.96,6.88l-94.82,111.41c-3.41,1.69-7.52.06-12.12-1.54Z"/><path class="cls-3" d="M626.85,208.97c-1.9-3.51-4.54-7.82-3.2-11.46l62.67-74.53c3.87-4.6,7.33-8.43,11.21-12.99l21.07-24.77c2.92,2.31,5.6,2.99,7.52,5.41-6.28,11.18-14.37,19.01-22.27,28.37l-68.4,80.98c-2.77,3.28-5,5.52-8.61,8.99Z"/><path class="cls-1" d="M613.28,200.71c2.96,4.4,4.65,9.19,5.65,14.66l-31.21,13.46-15.61-12.98,6.37-34.74c3.86.45,10.27-.54,13.02,2.69,3.65,4.3,2.7,11.09,6.13,15.66,4.75,1.4,9.49.96,15.64,1.26Z"/><path class="cls-2" d="M445.86,33.13L519.34,1.82c3.43-1.46,6.39-2.97,9.92-.52,2.21,1.54,3.34,4.88,2.41,8.76l-19.31,80.53-108.02,125.71-27.98,31.2c-9.63,10.74-24.91,11.34-35.56,1.63l-28-25.52c-9.09-8.28-9.54-23.48-1.42-32.95l40.64-47.45,93.83-110.08ZM320.69,212.9c5.4,7.73,12.55,13.15,19.52,19.31,5.56,4.92,18,17.55,26.77,7.31l15.82-18.47-45.05-40.93c-8.37,10.46-24.79,21.69-17.05,32.78ZM390.32,212.86l9.68-10.9-46.26-41.04-9.68,10.9,46.26,41.04ZM483.17,85.96l-84.25,98.98c2.18,3.84,4.72,6.53,8.62,7.89l23.35-27,65.13-76.29c-4.31-2.82-8.04-3.81-12.85-3.59ZM460.63,65.93l-84.27,98.59c4.03,6.69,8.92,12.04,15.89,15.76l84.89-99c2.43-2.83-.1-11.35-3.01-13.03-3.54-2.05-8.62-1.86-13.5-2.32ZM400.64,106.13l-7.69,9.56c-9.84,12.23-20.35,23.53-30.54,35.78-2.1,2.53,1.56,5.43,3.15,6.5,1.37.93,4.39,2.19,6.38-.14l62.56-73.21c7.01-8.2,14.63-15.35,19.83-24.82,1.68-3.05-.52-8.15-3.33-12.12l-50.36,58.45ZM459.88,41.54c1.06,5.57.64,13.64,5.17,14.68l16.7,3.81,4.99,15c1.35,4.07,11.55,5.26,14.92,2.22,1.66-.42,9.88-35.54,6.97-35.87-18.53-14.45-11.58-15.08-24.42-10.2-8.02,3.05-16.26,5.69-24.34,10.36Z"/><path class="cls-3" d="M460.63,65.93c4.88.46,9.96.27,13.5,2.32,2.91,1.68,5.44,10.2,3.01,13.03l-84.89,99c-6.97-3.72-11.86-9.07-15.89-15.76l84.27-98.59Z"/><path class="cls-3" d="M320.69,212.9c-7.74-11.08,8.68-22.32,17.05-32.78l45.05,40.93-15.82,18.47c-8.77,10.24-21.21-2.39-26.77-7.31-6.96-6.17-14.12-11.58-19.52-19.31Z"/><path class="cls-3" d="M483.17,85.96c4.81-.22,8.54.77,12.85,3.59l-65.13,76.29-23.35,27c-3.91-1.36-6.44-4.06-8.62-7.89l84.25-98.98Z"/><path class="cls-3" d="M400.64,106.13l50.36-58.45c2.8,3.96,5.01,9.06,3.33,12.12-5.2,9.48-12.82,16.62-19.83,24.82l-62.56,73.21c-1.99,2.33-5.01,1.06-6.38.14-1.59-1.07-5.25-3.97-3.15-6.5,10.19-12.26,20.7-23.56,30.54-35.78l7.69-9.56Z"/><path class="cls-1" d="M459.88,41.54c8.08-4.67,16.32-7.31,24.34-10.36,12.84-4.88,5.89-4.25,24.42,10.2,2.91.33-5.31,35.45-6.97,35.87-3.37,3.03-13.57,1.84-14.92-2.22l-4.99-15-16.7-3.81c-4.53-1.03-4.11-9.11-5.17-14.68Z"/><rect class="cls-1" x="364.74" y="155.97" width="14.58" height="61.84" transform="translate(758.73 32.63) rotate(131.58)"/><path class="cls-2" d="M1013.02,197.39l.09,55.06-55.27.09-.09-55.06,55.27-.09ZM1006.92,245.42l-.33-41.54c-14.71-.16-27.87-.75-41.83.6l.27,41.23,41.89-.29Z"/><path class="cls-2" d="M1084,251.8l-66,.21,33.04-58.78c10.04,13.18,15.71,26.71,23.44,39.76,2.8,6.06,7.31,9.53,9.51,18.81ZM1030.05,245.71l43.72-.57-12.61-21.48c-3.49-5.95-4.98-12.11-10.77-17.33-.25,5.62-2.36,7.76-4.4,11.23l-9.93,16.91c-2.07,3.53-2.59,7.24-6.01,11.24Z"/><path class="cls-2" d="M1061.74,159.23c0,16.51-13.39,29.9-29.91,29.9s-29.91-13.39-29.91-29.9,13.39-29.9,29.91-29.9,29.91,13.39,29.91,29.9ZM1053.55,149.73c-6.43-12.62-21.33-17.45-33.31-10.37-11.78,6.96-16,22.62-7.27,33.59,6.17,7.75,13.73,10.3,23.3,9.16,12.42-1.49,24.31-18.58,17.28-32.37Z"/><path class="cls-2" d="M908.88,224.68l-73.59,31.09c-1.82.77-4.24-.61-5.32-1.19-1.59-.84-2.35-3.46-1.78-5.88l16.12-68.81c1.58-6.76,3.95-11.03,8.5-16.26l94.83-108.99,27.39-30.83c7.93-8.93,21.09-9.09,29.94-1.35,9.97,8.72,19.76,16.94,28.98,26.29,8.37,8.49,8.58,20.89.54,29.66l-66.71,77.84-58.89,68.43ZM1025.49,57.45c-9.38-9.35-18.81-18.3-29.31-26.41-10.6-8.18-20,9.77-27.87,17.37l42.87,38.28c5.64-9.64,23.81-19.78,14.31-29.24ZM874.12,174.29l94.18-108.97c-1.89-3.37-4.25-5.6-7.96-7.69l-69.54,80.92c-9.9,11.52-19.64,21.34-29.04,34.14,3.13,1.28,9.25,5.2,12.36,1.6ZM895.87,193.92l50.87-60.29,42.66-50.22c-4.84-5.43-9.79-9.57-15.41-13.26l-94.98,109.93c.79,4.07.4,10.02,3.58,12.12,3.51,2.33,8.82,2.13,13.28,1.71ZM928.26,184.41l27.93-33.33,46.46-54.67c-2.01-3.77-4.41-6.3-7.97-7.17l-90.14,105.74c-4.45,5.21-5.02,11.97-.33,16.56,5.85-3.59,7.66-8.97,11.6-13.04,4.31-4.45,8.15-8.94,12.46-14.08ZM890.93,203.19c-4.66-3.22-10.81-.61-15.06-2.86l-5.77-15.37c-1.26-3.36-11.77-4.3-13.98-1.15-3.29,10.79-4.97,22.45-6.96,33.28,6.54,3.42,10.55,7.25,14.89,12.66,11.21-3.53,20.96-7.76,31.84-12.94-1.44-3.83-.82-10.76-4.95-13.62Z"/><path class="cls-3" d="M895.87,193.92c-4.46.42-9.77.62-13.28-1.71-3.17-2.11-2.79-8.06-3.58-12.12l94.98-109.93c5.62,3.69,10.57,7.83,15.41,13.26l-42.66,50.22-50.87,60.29Z"/><path class="cls-3" d="M1025.49,57.45c9.49,9.46-8.67,19.59-14.31,29.24l-42.87-38.28c7.88-7.6,17.28-25.55,27.87-17.37,10.5,8.11,19.93,17.07,29.31,26.41Z"/><path class="cls-3" d="M874.12,174.29c-3.1,3.59-9.22-.32-12.36-1.6,9.4-12.8,19.14-22.63,29.04-34.14l69.54-80.92c3.71,2.09,6.08,4.32,7.96,7.69l-94.18,108.97Z"/><path class="cls-3" d="M928.26,184.41c-4.31,5.14-8.15,9.63-12.46,14.08-3.95,4.08-5.76,9.45-11.6,13.04-4.68-4.59-4.11-11.34.33-16.56l90.14-105.74c3.57.88,5.96,3.41,7.97,7.17l-46.46,54.67-27.93,33.33Z"/><path class="cls-1" d="M890.93,203.19c4.13,2.86,3.51,9.79,4.95,13.62-10.88,5.18-20.63,9.41-31.84,12.94-4.35-5.41-8.35-9.24-14.89-12.66,1.99-10.83,3.67-22.49,6.96-33.28,2.21-3.15,12.72-2.21,13.98,1.15l5.77,15.37c4.25,2.25,10.41-.36,15.06,2.86Z"/><path class="cls-3" d="M1006.92,245.42l-41.89.29-.27-41.23c13.96-1.35,27.12-.77,41.83-.6l.33,41.54Z"/><path class="cls-3" d="M1030.05,245.71c3.42-4,3.94-7.71,6.01-11.24l9.93-16.91c2.04-3.47,4.15-5.6,4.4-11.23,5.79,5.22,7.27,11.38,10.77,17.33l12.61,21.48-43.72.57Z"/><path class="cls-3" d="M1053.55,149.73c7.03,13.79-4.86,30.88-17.28,32.37-9.57,1.15-17.14-1.41-23.3-9.16-8.73-10.97-4.5-26.63,7.27-33.59,11.98-7.08,26.88-2.25,33.31,10.37Z"/><path class="cls-2" d="M57.6,233.77l-51.77,22c-3.79,1.61-6.42-5.57-5.71-8.78l15.63-71.11c1.24-5.63,2.19-9.52,6.08-14.09L108.97,59.4l43.76-50.24c6.91-7.93,20.11-12.57,29.23-6.1,13.11,9.3,24.18,19.89,35.98,30.87,7.38,6.86,8.71,20.57,2.31,28.2l-28.29,33.69-107.57,127.08c-9.12,4.32-17.67,7-26.79,10.88ZM208.57,55.33c4.05-7.4-1.19-14.82-6.49-19.18l-25-20.58c-10.66-8.78-22.36,11.05-28.07,18.32,14.44,13.9,28.28,26.73,44.4,38.75,5.64-5.65,11.45-10.55,15.16-17.31ZM47.55,169.12l54.59-64.54,45.3-52.97c-1.65-3.38-5.02-6.99-8.64-7.09l-29.83,34.98-32.56,37.99-41.55,49.37c2.96,2.59,8.83,3.72,12.69,2.27ZM70.01,189.48l100.12-119.07c-4.99-5.52-9.71-9.68-15.66-14.57l-101.24,118.96c-1.09,3.85,0,11.7,2.84,13.56,3.59,2.36,8.79,1.47,13.94,1.12ZM161.36,111.12l22.92-27.94c.27-2.88-4.81-6.1-8.25-6.56l-97.51,115.25c-4.08,4.82-2.08,11.6,1.03,14.97,5.39-5.13,9.2-9.78,13.72-15.13l68.09-80.6ZM71.47,214.03c-1.86-5.4-2.34-12.15-6.75-14.6s-10.94.43-14.92-3.17c-3.94-3.57-3.93-11.43-7.13-15.82-2.12-2.9-12.04-3.93-13.67-.71l-4.39,18.04c-1.33,5.49-1.69,11.04-2.68,16.6l17.23,13.26c11.17-5.53,21-9.08,32.31-13.6Z"/><path class="cls-3" d="M70.01,189.48c-5.14.35-10.35,1.24-13.94-1.12-2.83-1.86-3.93-9.72-2.84-13.56l101.24-118.96c5.95,4.89,10.67,9.06,15.66,14.57l-100.12,119.07Z"/><path class="cls-3" d="M208.57,55.33c-3.71,6.76-9.52,11.66-15.16,17.31-16.12-12.02-29.96-24.85-44.4-38.75,5.71-7.27,17.41-27.1,28.07-18.32l25,20.58c5.3,4.36,10.55,11.78,6.49,19.18Z"/><path class="cls-3" d="M47.55,169.12c-3.85,1.45-9.72.32-12.69-2.27l41.55-49.37,32.56-37.99,29.83-34.98c3.62.1,6.99,3.72,8.64,7.09l-45.3,52.97-54.59,64.54Z"/><path class="cls-3" d="M161.36,111.12l-68.09,80.6c-4.52,5.34-8.33,9.99-13.72,15.13-3.1-3.37-5.1-10.15-1.03-14.97l97.51-115.25c3.44.45,8.52,3.68,8.25,6.56l-22.92,27.94Z"/><path class="cls-1" d="M71.47,214.03c-11.31,4.52-21.14,8.07-32.31,13.6l-17.23-13.26c.99-5.56,1.35-11.11,2.68-16.6l4.39-18.04c1.63-3.22,11.55-2.19,13.67.71,3.2,4.4,3.19,12.25,7.13,15.82,3.97,3.6,10.62.78,14.92,3.17s4.89,9.2,6.75,14.6Z"/></svg>