<?xml version="1.0" encoding="UTF-8"?><svg id="Layer_1" xmlns="http://www.w3.org/2000/svg" viewBox="0 0 256 256"><defs><style>.cls-1{fill:#fdfdfc;}.cls-2{fill:#10100f;}.cls-3{fill:#5f5f5b;}</style></defs><path class="cls-2" d="M185.02,197.39l.09,55.06-55.27.09-.09-55.06,55.27-.09ZM178.92,245.42l-.33-41.54c-14.71-.16-27.87-.75-41.83.6l.27,41.23,41.89-.29Z"/><path class="cls-2" d="M256,251.8l-66,.21,33.04-58.78c10.04,13.18,15.71,26.71,23.44,39.76,2.8,6.06,7.31,9.53,9.51,18.81ZM202.05,245.71l43.72-.57-12.61-21.48c-3.49-5.95-4.98-12.11-10.77-17.33-.25,5.62-2.36,7.76-4.4,11.23l-9.93,16.91c-2.07,3.53-2.59,7.24-6.01,11.24Z"/><path class="cls-2" d="M233.74,159.23c0,16.51-13.39,29.9-29.91,29.9s-29.91-13.39-29.91-29.9,13.39-29.9,29.91-29.9,29.91,13.39,29.91,29.9ZM225.55,149.73c-6.43-12.62-21.33-17.45-33.31-10.37-11.78,6.96-16,22.62-7.27,33.59,6.17,7.75,13.73,10.3,23.3,9.16,12.42-1.49,24.31-18.58,17.28-32.37Z"/><path class="cls-2" d="M80.88,224.68L7.29,255.77c-1.82.77-4.24-.61-5.32-1.19-1.59-.84-2.35-3.46-1.78-5.88l16.12-68.81c1.58-6.76,3.95-11.03,8.5-16.26L119.63,54.64l27.39-30.83c7.93-8.93,21.09-9.09,29.94-1.35,9.97,8.72,19.76,16.94,28.98,26.29,8.37,8.49,8.58,20.89.54,29.66l-66.71,77.84-58.89,68.43ZM197.49,57.45c-9.38-9.35-18.81-18.3-29.31-26.41-10.6-8.18-20,9.77-27.87,17.37l42.87,38.28c5.64-9.64,23.81-19.78,14.31-29.24ZM46.12,174.29l94.18-108.97c-1.89-3.37-4.25-5.6-7.96-7.69l-69.54,80.92c-9.9,11.52-19.64,21.34-29.04,34.14,3.13,1.28,9.25,5.2,12.36,1.6ZM67.87,193.92l50.87-60.29,42.66-50.22c-4.84-5.43-9.79-9.57-15.41-13.26l-94.98,109.93c.79,4.07.4,10.02,3.58,12.12,3.51,2.33,8.82,2.13,13.28,1.71ZM100.26,184.41l27.93-33.33,46.46-54.67c-2.01-3.77-4.41-6.3-7.97-7.17l-90.14,105.74c-4.45,5.21-5.02,11.97-.33,16.56,5.85-3.59,7.66-8.97,11.6-13.04,4.31-4.45,8.15-8.94,12.46-14.08ZM62.93,203.19c-4.66-3.22-10.81-.61-15.06-2.86l-5.77-15.37c-1.26-3.36-11.77-4.3-13.98-1.15-3.29,10.79-4.97,22.45-6.96,33.28,6.54,3.42,10.55,7.25,14.89,12.66,11.21-3.53,20.96-7.76,31.84-12.94-1.44-3.83-.82-10.76-4.95-13.62Z"/><path class="cls-3" d="M67.87,193.92c-4.46.42-9.77.62-13.28-1.71-3.17-2.11-2.79-8.06-3.58-12.12l94.98-109.93c5.62,3.69,10.57,7.83,15.41,13.26l-42.66,50.22-50.87,60.29Z"/><path class="cls-3" d="M197.49,57.45c9.49,9.46-8.67,19.59-14.31,29.24l-42.87-38.28c7.88-7.6,17.28-25.55,27.87-17.37,10.5,8.11,19.93,17.07,29.31,26.41Z"/><path class="cls-3" d="M46.12,174.29c-3.1,3.59-9.22-.32-12.36-1.6,9.4-12.8,19.14-22.63,29.04-34.14l69.54-80.92c3.71,2.09,6.08,4.32,7.96,7.69l-94.18,108.97Z"/><path class="cls-3" d="M100.26,184.41c-4.31,5.14-8.15,9.63-12.46,14.08-3.95,4.08-5.76,9.45-11.6,13.04-4.68-4.59-4.11-11.34.33-16.56l90.14-105.74c3.57.88,5.96,3.41,7.97,7.17l-46.46,54.67-27.93,33.33Z"/><path class="cls-1" d="M62.93,203.19c4.13,2.86,3.51,9.79,4.95,13.62-10.88,5.18-20.63,9.41-31.84,12.94-4.35-5.41-8.35-9.24-14.89-12.66,1.99-10.83,3.67-22.49,6.96-33.28,2.21-3.15,12.72-2.21,13.98,1.15l5.77,15.37c4.25,2.25,10.41-.36,15.06,2.86Z"/><path class="cls-3" d="M178.92,245.42l-41.89.29-.27-41.23c13.96-1.35,27.12-.77,41.83-.6l.33,41.54Z"/><path class="cls-3" d="M202.05,245.71c3.42-4,3.94-7.71,6.01-11.24l9.93-16.91c2.04-3.47,4.15-5.6,4.4-11.23,5.79,5.22,7.27,11.38,10.77,17.33l12.61,21.48-43.72.57Z"/><path class="cls-3" d="M225.55,149.73c7.03,13.79-4.86,30.88-17.28,32.37-9.57,1.15-17.14-1.41-23.3-9.16-8.73-10.97-4.5-26.63,7.27-33.59,11.98-7.08,26.88-2.25,33.31,10.37Z"/></svg>