<?xml version="1.0" encoding="UTF-8"?><svg id="Layer_1" xmlns="http://www.w3.org/2000/svg" viewBox="0 0 256 256"><defs><style>.cls-1{fill:#fdfdfc;}.cls-2{fill:#10100f;}.cls-3{fill:#5f5f5b;}</style></defs><path class="cls-2" d="M210.2,175.94c11.48,9.34,49.63,12.78,45.49,46.07-1.19,9.56-7.61,19.79-18.27,24.04-14.69,5.85-30.81,4.47-45.37-1.23.47-4.68,1.55-7.93,3.11-11.67,9.5,3.79,19.58,5.53,29.64,3.42,8.68-1.82,13.82-8.17,14.43-16.16.65-8.55-3.33-15.19-11.76-19.01l-21.46-9.72c-11.6-5.25-18.43-15.52-18.34-27.89.08-11.69,6.68-22.34,18.54-27.37,14.4-6.11,31.49-4.4,45.49,2.87-.51,4.89-3.12,8.2-4.55,12.47-13.33-8.75-41.32-8.29-43.12,7.75-.73,6.5.91,12.14,6.17,16.42Z"/><path class="cls-2" d="M183.23,206.16c1.36-3.22,8.17-1.51,11.39-.84,2.35,18.66-5.1,40.07-25.23,43.67-12.58,2.25-25.25-.94-32.47-11.28-6.04-8.66-10.11-20.45-8.36-31.26.55-3.39,10.52-3.41,12.41-.91,2.42,5.85,1.22,13.66,4.25,19.58,3.34,6.52,9.26,10.96,16.14,11.19,7.35.25,13.54-4.25,17.24-10.96,3.2-5.82,2.05-12.38,4.64-19.2Z"/><path class="cls-2" d="M70.89,227.68L4.52,255.09c-3.64,1.5-5.43-6.66-4.68-9.88l17.55-75.22c7.36-9.61,14.58-17.27,22.29-26.35l91.35-107.59,13.18-14.76c10.19-11.42,24.53-9.65,35.35-.05l25.45,22.59c9.72,8.62,8.08,22.16-.02,31.72l-30.35,35.82-88.63,105.34c-4.48,5.32-8.1,8.07-15.12,10.97ZM194.82,68.3c5.09-6.18,3.7-14.73-2.2-19.76l-23.3-19.83c-11.92-10.14-21.75,7.04-28.28,16.01l41.17,37.77c4.63-4.59,8.27-8.95,12.6-14.2ZM32.69,171.62c4.6,1.59,8.71,3.23,12.12,1.54l94.82-111.41c-1.66-3.52-4.67-5.82-7.96-6.88l-44.96,52.22-48.58,56.78c-2.23,2.6-3.09,5.63-5.44,7.75ZM66.39,191.49l45.61-54.27,48.81-57.26c-4.73-5.39-9.52-9.71-15.29-13.81l-95.93,113.23c.15,4.95,1.03,7.93,2.63,12.87,3.09-.03,10.91,3.11,14.17-.76ZM74.85,208.97c3.61-3.47,5.83-5.71,8.61-8.99l68.4-80.98c7.9-9.36,15.99-17.18,22.27-28.37-1.92-2.42-4.6-3.1-7.52-5.41l-21.07,24.77c-3.88,4.56-7.34,8.39-11.21,12.99l-62.67,74.53c-1.34,3.64,1.3,7.95,3.2,11.46ZM61.28,200.71c-6.14-.31-10.88.13-15.64-1.26-3.44-4.57-2.48-11.36-6.13-15.66-2.75-3.23-9.16-2.25-13.02-2.69l-6.37,34.74,15.61,12.98,31.21-13.46c-1-5.46-2.69-10.25-5.65-14.66Z"/><path class="cls-3" d="M66.39,191.49c-3.26,3.88-11.08.74-14.17.76-1.6-4.95-2.48-7.92-2.63-12.87l95.93-113.23c5.76,4.1,10.56,8.41,15.29,13.81l-48.81,57.26-45.61,54.27Z"/><path class="cls-3" d="M194.82,68.3c-4.33,5.25-7.97,9.61-12.6,14.2l-41.17-37.77c6.53-8.97,16.36-26.16,28.28-16.01l23.3,19.83c5.9,5.02,7.29,13.58,2.2,19.76Z"/><path class="cls-3" d="M32.69,171.62c2.34-2.12,3.21-5.15,5.44-7.75l48.58-56.78,44.96-52.22c3.29,1.06,6.3,3.36,7.96,6.88l-94.82,111.41c-3.41,1.69-7.52.06-12.12-1.54Z"/><path class="cls-3" d="M74.85,208.97c-1.9-3.51-4.54-7.82-3.2-11.46l62.67-74.53c3.87-4.6,7.33-8.43,11.21-12.99l21.07-24.77c2.92,2.31,5.6,2.99,7.52,5.41-6.28,11.18-14.37,19.01-22.27,28.37l-68.4,80.98c-2.77,3.28-5,5.52-8.61,8.99Z"/><path class="cls-1" d="M61.28,200.71c2.96,4.4,4.65,9.19,5.65,14.66l-31.21,13.46-15.61-12.98,6.37-34.74c3.86.45,10.27-.54,13.02,2.69,3.65,4.3,2.7,11.09,6.13,15.66,4.75,1.4,9.49.96,15.64,1.26Z"/></svg>