<?xml version="1.0" encoding="UTF-8"?>
<svg id="Layer_1" xmlns="http://www.w3.org/2000/svg" version="1.1" viewBox="0 0 256 256">
  <!-- Generator: Adobe Illustrator 30.2.1, SVG Export Plug-In . SVG Version: 2.1.1 Build 1)  -->
  <defs>
    <style>
      .st0 {
        fill: #bababa;
      }
    </style>
  </defs>
  <path class="st0" d="M146.65,143.92c.25,5.89-10.02,3.55-13.5-.15l-17.92-19.02c-3-3.18-.32-7.5,1-9.94,1.7-3.12,8.6,2.51,10.49,1.07,15.2-12.87,29.41-28.44,43.64-43.37,2.98-3.13-2.77-7.24-4.77-8.68-6.3-4.54-20.83,10.64-19.23-6.09.62-6.48,13.52-18.6,20.25-12.75,18.17,15.8,34.79,33.15,50.51,50.94,1.89,6.41-11.7,19.89-18.09,19.49-9.05-.56,2.31-14.04-1.7-19.76-1.73-2.47-7.6-8.13-11.2-4.55l-40.04,39.78.56,13.03Z"/>
  <path class="st0" d="M194,177.67c2.66,10.8-4.29,21.85-11.68,25.96-23.8,13.25-44.93-14.65-61.98-34.74-14.94-17.61-31.47-32.64-47.69-49.18-3.69-3.77-9.56-5.01-13.23-2.97-12.18,6.76-4.54,18.02-13.79,18.91-18.21-.22-2.19-26.12,6.1-28.91,8.07-4.38,20.73-4.56,27.31,1.72,14.67,14.02,28.79,27.1,41.77,42.46,12.68,14.99,26.22,28.37,40.53,41.76,3.82,3.58,10.67,1.41,14.46-.14,4.52-1.84,4.83-8.04,5.72-14.43.45-3.2,11.61-3.95,12.48-.44Z"/>
</svg>