<?xml version="1.0" encoding="UTF-8"?>
<svg id="Layer_1" xmlns="http://www.w3.org/2000/svg" version="1.1" viewBox="0 0 256 256">
  <!-- Generator: Adobe Illustrator 30.2.1, SVG Export Plug-In . SVG Version: 2.1.1 Build 1)  -->
  <path d="M135.85,137.39c-8.19,7.1-1.99,18.23,2.57,23.51,14.07,16.31,34.34-2.29,28.61,16.49-1.22,4-5.84,3.21-9.89,3.72-23.95,2.98-19-12.91-30.09-13.37-8.33-.34-7.32,16.07-27.75,13.35-4.32-.57-10.05,1.55-10.59-3.2-2.45-21.48,12.89.82,27.23-17.17,4.07-5.11,7.2-18.31,1.22-22.74-4.45-3.3-7.66-2.21-7.07-8.66.37-4.04,3.22-5.47,9.12-6.88.62-22.84,1.21-47.69,0-71.36-.67-13.17-15.66-17.38-26.22-15.53-6.32,1.1-4.76-6.92-4.36-9.83.66-4.72,6.35-2.5,10.64-3.1,20.38-2.85,18.74,13.72,27.77,13.26,11.36-.58,5.56-15.89,30.1-13.34,3.95.41,8.81.13,9.79,3.62.69,2.49,2.36,10.07-3.74,9.2-11.8-1.68-28.92,3.28-29.95,18.14-1.54,22.08-.72,47.87-.02,68.96,1.95,2.12,9.23.96,11.03,2.18,2.31,1.56.75,5.62.83,8.48.12,4.29-6.16,1.61-9.23,4.26Z"/>
  <path d="M255.09,45.27c3.18,10.12-1.4,15.38-10.68,12.14-2.51-1.15-2.88-7.29-.43-11.13,1.59-2.49,9.09-1.84,11.11-1Z"/>
  <path d="M231.22,67.94c1.08-2.16,8.92-1.42,10.7.18,2.08,1.87,2.39,7.45.73,10.4-1.71,3.04-6.16,1.36-8.55,1.41-4.47.08-5.09-7.53-2.87-11.99Z"/>
  <path d="M209.12,90.01c1.13-2.14,8.94-1.42,10.72.19,2.08,1.87,2.38,7.44.73,10.41-1.69,3.04-6.24,1.36-8.63,1.4-4.01.08-5.18-7.52-2.82-12Z"/>
  <path d="M191.19,101.33c4.22-.24,7.84.37,8.02,3.04.36,5.24.09,9.7-2.88,9.94-4.39.36-11.8,2.35-10.54-2.66s-1.34-9.94,5.4-10.32Z"/>
  <path d="M164.96,112.1c1.12-2.15,8.91-1.4,10.7.19,2.09,1.85,2.37,7.46.73,10.4-1.7,3.06-6.21,1.35-8.59,1.41-4.22.1-5.17-7.53-2.85-12Z"/>
  <path d="M76.54,134.39c1.19-2.42,9.01-1.62,10.79-.02,2.07,1.87,2.39,7.46.73,10.4s-6.19,1.34-8.56,1.43c-4.52.18-4.84-7.98-2.96-11.81Z"/>
  <path d="M58.69,145.5c4.21-.23,7.83.35,8.02,3.06.36,5.12.1,9.68-2.85,9.91-4.32.34-12,2.52-10.6-2.68s-1.34-9.92,5.43-10.3Z"/>
  <path d="M32.38,156.36c1.23-2.3,8.99-1.51,10.77.09,2.08,1.87,2.38,7.44.73,10.41s-6.2,1.33-8.7,1.42c-3.86.14-5.04-7.76-2.81-11.92Z"/>
  <path d="M10.27,178.59c1.18-2.47,9.04-1.67,10.8-.05,2.06,1.88,2.4,7.46.72,10.4s-6.14,1.37-8.54,1.44c-4.66.13-4.79-8-2.99-11.78Z"/>
  <path d="M12.23,199.88c2.65,9.88-.59,15.01-9.9,12.41-2.89-1.29-2.98-7.78-.88-11.47,1.4-2.45,8.86-1.8,10.77-.94Z"/>
</svg>