<?xml version="1.0" encoding="UTF-8"?>
<svg id="Layer_1" xmlns="http://www.w3.org/2000/svg" version="1.1" viewBox="0 0 256 256">
  <!-- Generator: Adobe Illustrator 30.2.1, SVG Export Plug-In . SVG Version: 2.1.1 Build 1)  -->
  <defs>
    <style>
      .st0 {
        fill: #bababa;
      }
    </style>
  </defs>
  <path class="st0" d="M156.78,197.66l-56.03-.18c-3.93-3.08-4.04-16.09.02-18.64,4.02-2.53,15.24,1.59,16.75-3.47l.29-96.22c-13.59-1.73-25.59-1.5-38.2-.19l-1.84,18.33c-6.36,1.3-11.83,1.26-18.54-.07-.74-13-1.05-25.04.15-38.87h137.24c1.18,13.75.97,25.84.13,38.9-6.65,1.37-12.09,1.27-18.54,0l-1.83-18.28c-12.65-1.26-24.67-1.46-38.15.18v97.73s18.59,1.88,18.59,1.88c1.2,5.78,1.58,10.49-.04,18.91Z"/>
</svg>